<?xml version="1.0" encoding="us-ascii" standalone="no"?><svg xmlns="http://www.w3.org/2000/svg" xmlns:xlink="http://www.w3.org/1999/xlink" contentStyleType="text/css" height="784px" preserveAspectRatio="none" style="width:760px;height:784px;background:#FFFFFF;" version="1.1" viewBox="0 0 760 784" width="760px" zoomAndPan="magnify"><defs/><g><!--cluster java--><g id="cluster_java"><path d="M134.5,528 L164.5,528 A3.75,3.75 0 0 1 167,530.5 L174,550.4883 L358.5,550.4883 A2.5,2.5 0 0 1 361,552.9883 L361,774.5 A2.5,2.5 0 0 1 358.5,777 L134.5,777 A2.5,2.5 0 0 1 132,774.5 L132,530.5 A2.5,2.5 0 0 1 134.5,528 " fill="none" style="stroke:#000000;stroke-width:1.5;"/><line style="stroke:#000000;stroke-width:1.5;" x1="132" x2="174" y1="550.4883" y2="550.4883"/><text fill="#000000" font-family="sans-serif" font-size="14" font-weight="bold" lengthAdjust="spacing" textLength="29" x="136" y="543.5352">java</text></g><!--cluster util--><g id="cluster_util"><path d="M158.5,571 L184.5,571 A3.75,3.75 0 0 1 187,573.5 L194,593.4883 L334.5,593.4883 A2.5,2.5 0 0 1 337,595.9883 L337,750.5 A2.5,2.5 0 0 1 334.5,753 L158.5,753 A2.5,2.5 0 0 1 156,750.5 L156,573.5 A2.5,2.5 0 0 1 158.5,571 " fill="none" style="stroke:#000000;stroke-width:1.5;"/><line style="stroke:#000000;stroke-width:1.5;" x1="156" x2="194" y1="593.4883" y2="593.4883"/><text fill="#000000" font-family="sans-serif" font-size="14" font-weight="bold" lengthAdjust="spacing" textLength="25" x="160" y="586.5352">util</text></g><!--cluster function--><g id="cluster_function"><path d="M182.5,614 L243.5,614 A3.75,3.75 0 0 1 246,616.5 L253,636.4883 L310.5,636.4883 A2.5,2.5 0 0 1 313,638.9883 L313,726.5 A2.5,2.5 0 0 1 310.5,729 L182.5,729 A2.5,2.5 0 0 1 180,726.5 L180,616.5 A2.5,2.5 0 0 1 182.5,614 " fill="none" style="stroke:#000000;stroke-width:1.5;"/><line style="stroke:#000000;stroke-width:1.5;" x1="180" x2="253" y1="636.4883" y2="636.4883"/><text fill="#000000" font-family="sans-serif" font-size="14" font-weight="bold" lengthAdjust="spacing" textLength="60" x="184" y="629.5352">function</text></g><!--cluster ohm--><g id="cluster_ohm"><path d="M8.5,6 L41.5,6 A3.75,3.75 0 0 1 44,8.5 L51,28.4883 L750.5,28.4883 A2.5,2.5 0 0 1 753,30.9883 L753,501.5 A2.5,2.5 0 0 1 750.5,504 L8.5,504 A2.5,2.5 0 0 1 6,501.5 L6,8.5 A2.5,2.5 0 0 1 8.5,6 " fill="none" style="stroke:#000000;stroke-width:1.5;"/><line style="stroke:#000000;stroke-width:1.5;" x1="6" x2="51" y1="28.4883" y2="28.4883"/><text fill="#000000" font-family="sans-serif" font-size="14" font-weight="bold" lengthAdjust="spacing" textLength="32" x="10" y="21.5352">ohm</text></g><!--cluster softa--><g id="cluster_softa"><path d="M32.5,49 L70.5,49 A3.75,3.75 0 0 1 73,51.5 L80,71.4883 L726.5,71.4883 A2.5,2.5 0 0 1 729,73.9883 L729,477.5 A2.5,2.5 0 0 1 726.5,480 L32.5,480 A2.5,2.5 0 0 1 30,477.5 L30,51.5 A2.5,2.5 0 0 1 32.5,49 " fill="none" style="stroke:#000000;stroke-width:1.5;"/><line style="stroke:#000000;stroke-width:1.5;" x1="30" x2="80" y1="71.4883" y2="71.4883"/><text fill="#000000" font-family="sans-serif" font-size="14" font-weight="bold" lengthAdjust="spacing" textLength="37" x="34" y="64.5352">softa</text></g><!--cluster a12--><g id="cluster_a12"><path d="M56.5,92 L83.5,92 A3.75,3.75 0 0 1 86,94.5 L93,114.4883 L702.5,114.4883 A2.5,2.5 0 0 1 705,116.9883 L705,453.5 A2.5,2.5 0 0 1 702.5,456 L56.5,456 A2.5,2.5 0 0 1 54,453.5 L54,94.5 A2.5,2.5 0 0 1 56.5,92 " fill="none" style="stroke:#000000;stroke-width:1.5;"/><line style="stroke:#000000;stroke-width:1.5;" x1="54" x2="93" y1="114.4883" y2="114.4883"/><text fill="#000000" font-family="sans-serif" font-size="14" font-weight="bold" lengthAdjust="spacing" textLength="26" x="58" y="107.5352">a12</text></g><!--cluster icndb--><g id="cluster_icndb"><path d="M80.5,135 L120.5,135 A3.75,3.75 0 0 1 123,137.5 L130,157.4883 L678.5,157.4883 A2.5,2.5 0 0 1 681,159.9883 L681,429.5 A2.5,2.5 0 0 1 678.5,432 L80.5,432 A2.5,2.5 0 0 1 78,429.5 L78,137.5 A2.5,2.5 0 0 1 80.5,135 " fill="none" style="stroke:#000000;stroke-width:1.5;"/><line style="stroke:#000000;stroke-width:1.5;" x1="78" x2="130" y1="157.4883" y2="157.4883"/><text fill="#000000" font-family="sans-serif" font-size="14" font-weight="bold" lengthAdjust="spacing" textLength="39" x="82" y="150.5352">icndb</text></g><!--class Supplier--><g id="elem_Supplier"><rect codeLine="3" fill="#F1F1F1" height="64.4883" id="Supplier" rx="2.5" ry="2.5" style="stroke:#181818;stroke-width:0.5;" width="101" x="196" y="648.76"/><ellipse cx="211" cy="664.76" fill="#B4A7E5" rx="11" ry="11" style="stroke:#181818;stroke-width:1.0;"/><path d="M207.4277,661.0251 L207.4277,658.8669 L214.8071,658.8669 L214.8071,661.0251 L212.3418,661.0251 L212.3418,669.1018 L214.8071,669.1018 L214.8071,671.26 L207.4277,671.26 L207.4277,669.1018 L209.8931,669.1018 L209.8931,661.0251 Z " fill="#000000"/><text fill="#000000" font-family="sans-serif" font-size="14" font-style="italic" lengthAdjust="spacing" textLength="57" x="225" y="670.051">Supplier</text><rect fill="#FFFFFF" height="16.1328" style="stroke:#181818;stroke-width:1.0;stroke-dasharray:2.0,2.0;" width="10" x="290" y="645.76"/><text fill="#000000" font-family="sans-serif" font-size="12" font-style="italic" lengthAdjust="spacing" textLength="8" x="291" y="658.3616">T</text><line style="stroke:#181818;stroke-width:0.5;" x1="197" x2="296" y1="680.76" y2="680.76"/><line style="stroke:#181818;stroke-width:0.5;" x1="197" x2="296" y1="688.76" y2="688.76"/><text fill="#000000" font-family="sans-serif" font-size="14" lengthAdjust="spacing" textLength="49" x="202" y="706.2952">T get();</text></g><!--class JokeGenerator--><g id="elem_JokeGenerator"><rect codeLine="9" fill="#F1F1F1" height="80.9766" id="JokeGenerator" rx="2.5" ry="2.5" style="stroke:#181818;stroke-width:0.5;" width="305" x="94" y="252.51"/><ellipse cx="193.25" cy="268.51" fill="#ADD1B2" rx="11" ry="11" style="stroke:#181818;stroke-width:1.0;"/><path d="M195.7231,274.6531 Q195.1421,274.9519 194.5029,275.1013 Q193.8638,275.2507 193.1582,275.2507 Q190.6514,275.2507 189.3315,273.5989 Q188.0117,271.947 188.0117,268.8259 Q188.0117,265.6965 189.3315,264.0447 Q190.6514,262.3928 193.1582,262.3928 Q193.8638,262.3928 194.5112,262.5422 Q195.1587,262.6916 195.7231,262.9905 L195.7231,265.7131 Q195.0923,265.1321 194.4988,264.8623 Q193.9053,264.5925 193.2744,264.5925 Q191.9297,264.5925 191.2449,265.6592 Q190.5601,266.7258 190.5601,268.8259 Q190.5601,270.9177 191.2449,271.9844 Q191.9297,273.051 193.2744,273.051 Q193.9053,273.051 194.4988,272.7812 Q195.0923,272.5115 195.7231,271.9304 Z " fill="#000000"/><text fill="#000000" font-family="sans-serif" font-size="14" lengthAdjust="spacing" textLength="98" x="213.75" y="273.801">JokeGenerator</text><line style="stroke:#181818;stroke-width:0.5;" x1="95" x2="398" y1="284.51" y2="284.51"/><line style="stroke:#181818;stroke-width:0.5;" x1="95" x2="398" y1="292.51" y2="292.51"/><ellipse cx="105" cy="306.2541" fill="#84BE84" rx="3" ry="3" style="stroke:#038048;stroke-width:1.0;"/><text fill="#000000" font-family="sans-serif" font-size="14" lengthAdjust="spacing" textLength="279" x="114" y="310.0452">randomJokesStream(): Stream&lt;JokeDto&gt;</text><ellipse cx="105" cy="322.7424" fill="#84BE84" rx="3" ry="3" style="stroke:#038048;stroke-width:1.0;"/><text fill="#000000" font-family="sans-serif" font-size="14" lengthAdjust="spacing" textLength="241" x="114" y="326.5334">allJokesStream(): Stream&lt;JokeDto&gt;</text></g><!--class AllJokesIterator--><g id="elem_AllJokesIterator"><rect codeLine="14" fill="#F1F1F1" height="48" id="AllJokesIterator" rx="2.5" ry="2.5" style="stroke:#181818;stroke-width:0.5;" width="137" x="509" y="239"/><ellipse cx="524" cy="255" fill="#ADD1B2" rx="11" ry="11" style="stroke:#181818;stroke-width:1.0;"/><path d="M526.4731,261.1431 Q525.8921,261.4419 525.2529,261.5913 Q524.6138,261.7407 523.9082,261.7407 Q521.4014,261.7407 520.0815,260.0889 Q518.7617,258.437 518.7617,255.3159 Q518.7617,252.1865 520.0815,250.5347 Q521.4014,248.8828 523.9082,248.8828 Q524.6138,248.8828 525.2612,249.0322 Q525.9087,249.1816 526.4731,249.4805 L526.4731,252.2031 Q525.8423,251.6221 525.2488,251.3523 Q524.6553,251.0825 524.0244,251.0825 Q522.6797,251.0825 521.9949,252.1492 Q521.3101,253.2158 521.3101,255.3159 Q521.3101,257.4077 521.9949,258.4744 Q522.6797,259.541 524.0244,259.541 Q524.6553,259.541 525.2488,259.2712 Q525.8423,259.0015 526.4731,258.4204 Z " fill="#000000"/><text fill="#000000" font-family="sans-serif" font-size="14" lengthAdjust="spacing" textLength="105" x="538" y="260.291">AllJokesIterator</text><line style="stroke:#181818;stroke-width:0.5;" x1="510" x2="645" y1="271" y2="271"/><line style="stroke:#181818;stroke-width:0.5;" x1="510" x2="645" y1="279" y2="279"/></g><!--class Iterator--><g id="elem_Iterator"><rect fill="#F1F1F1" height="48" id="Iterator" rx="2.5" ry="2.5" style="stroke:#181818;stroke-width:0.5;" width="83" x="205" y="170"/><ellipse cx="220" cy="186" fill="#B4A7E5" rx="11" ry="11" style="stroke:#181818;stroke-width:1.0;"/><path d="M216.4277,182.2651 L216.4277,180.1069 L223.8071,180.1069 L223.8071,182.2651 L221.3418,182.2651 L221.3418,190.3418 L223.8071,190.3418 L223.8071,192.5 L216.4277,192.5 L216.4277,190.3418 L218.8931,190.3418 L218.8931,182.2651 Z " fill="#000000"/><text fill="#000000" font-family="sans-serif" font-size="14" font-style="italic" lengthAdjust="spacing" textLength="51" x="234" y="191.291">Iterator</text><line style="stroke:#181818;stroke-width:0.5;" x1="206" x2="287" y1="202" y2="202"/><line style="stroke:#181818;stroke-width:0.5;" x1="206" x2="287" y1="210" y2="210"/></g><!--class RandomJokeSupplier--><g id="elem_RandomJokeSupplier"><rect codeLine="17" fill="#F1F1F1" height="48" id="RandomJokeSupplier" rx="2.5" ry="2.5" style="stroke:#181818;stroke-width:0.5;" width="175" x="490" y="335"/><ellipse cx="505" cy="351" fill="#ADD1B2" rx="11" ry="11" style="stroke:#181818;stroke-width:1.0;"/><path d="M507.4731,357.1431 Q506.8921,357.4419 506.2529,357.5913 Q505.6138,357.7407 504.9082,357.7407 Q502.4014,357.7407 501.0815,356.0889 Q499.7617,354.437 499.7617,351.3159 Q499.7617,348.1865 501.0815,346.5347 Q502.4014,344.8828 504.9082,344.8828 Q505.6138,344.8828 506.2612,345.0322 Q506.9087,345.1816 507.4731,345.4805 L507.4731,348.2031 Q506.8423,347.6221 506.2488,347.3523 Q505.6553,347.0825 505.0244,347.0825 Q503.6797,347.0825 502.9949,348.1492 Q502.3101,349.2158 502.3101,351.3159 Q502.3101,353.4077 502.9949,354.4744 Q503.6797,355.541 505.0244,355.541 Q505.6553,355.541 506.2488,355.2712 Q506.8423,355.0015 507.4731,354.4204 Z " fill="#000000"/><text fill="#000000" font-family="sans-serif" font-size="14" lengthAdjust="spacing" textLength="143" x="519" y="356.291">RandomJokeSupplier</text><line style="stroke:#181818;stroke-width:0.5;" x1="491" x2="664" y1="367" y2="367"/><line style="stroke:#181818;stroke-width:0.5;" x1="491" x2="664" y1="375" y2="375"/></g><!--class Supplier--><g id="elem_Supplier"><rect fill="#F1F1F1" height="48" id="Supplier" rx="2.5" ry="2.5" style="stroke:#181818;stroke-width:0.5;" width="89" x="202" y="368"/><ellipse cx="217" cy="384" fill="#B4A7E5" rx="11" ry="11" style="stroke:#181818;stroke-width:1.0;"/><path d="M213.4277,380.2651 L213.4277,378.1069 L220.8071,378.1069 L220.8071,380.2651 L218.3418,380.2651 L218.3418,388.3418 L220.8071,388.3418 L220.8071,390.5 L213.4277,390.5 L213.4277,388.3418 L215.8931,388.3418 L215.8931,380.2651 Z " fill="#000000"/><text fill="#000000" font-family="sans-serif" font-size="14" font-style="italic" lengthAdjust="spacing" textLength="57" x="231" y="389.291">Supplier</text><line style="stroke:#181818;stroke-width:0.5;" x1="203" x2="290" y1="400" y2="400"/><line style="stroke:#181818;stroke-width:0.5;" x1="203" x2="290" y1="408" y2="408"/></g><!--reverse link Iterator to AllJokesIterator--><g id="link_Iterator_AllJokesIterator"><path d="M308.48,206.79 C365.31,218.71 449.89,236.45 508.79,248.8 " fill="none" id="Iterator-backto-AllJokesIterator" style="stroke:#181818;stroke-width:1.0;stroke-dasharray:7.0,7.0;"/><polygon fill="none" points="307.31,213.49,289.17,202.53,310.18,199.78,307.31,213.49" style="stroke:#181818;stroke-width:1.0;"/></g><!--reverse link Supplier to RandomJokeSupplier--><g id="link_Supplier_RandomJokeSupplier"><path d="M311.76,387.29 C353.95,384.02 410.31,379.3 460,374 C469.63,372.97 479.7,371.81 489.71,370.6 " fill="none" id="Supplier-backto-RandomJokeSupplier" style="stroke:#181818;stroke-width:1.0;stroke-dasharray:7.0,7.0;"/><polygon fill="none" points="312.57,394.32,292.1,388.86,311.51,380.36,312.57,394.32" style="stroke:#181818;stroke-width:1.0;"/></g><!--link JokeGenerator to AllJokesIterator--><g id="link_JokeGenerator_AllJokesIterator"><path codeLine="20" d="M399.48,279.14 C437.7,275.66 476.83,272.09 508.54,269.2 " fill="none" id="JokeGenerator-AllJokesIterator" style="stroke:#181818;stroke-width:1.0;"/><text fill="#000000" font-family="sans-serif" font-size="13" lengthAdjust="spacing" textLength="29" x="430" y="271.5684">uses</text></g><!--link JokeGenerator to RandomJokeSupplier--><g id="link_JokeGenerator_RandomJokeSupplier"><path codeLine="21" d="M399.48,323.49 C430.46,329.7 462.04,336.04 489.78,341.6 " fill="none" id="JokeGenerator-RandomJokeSupplier" style="stroke:#181818;stroke-width:1.0;"/><text fill="#000000" font-family="sans-serif" font-size="13" lengthAdjust="spacing" textLength="29" x="430" y="326.5684">uses</text></g><!--SRC=[ZP1DZi8m38NNv1GMAz28IB1a418I4e8bS06JkYMGdofnsQ3UdPPs0gDXCLv5x_dpisCePs0FGHTdXam7Kgoz4oMgAnO45xoXh5WRcLVkQS5TG5FQCOKS5S6XAakZAIoEozvhwmW5yMZy_HHgKOiqqf-jZ3vdb3YTIQrSTkevPJ16sFahRSXHGFRXRU9NG9Tvszhnm87GZiPpw5wBLbspNxwwqPX_j3PxlP9NFRBbFbpRqf0bnn6ITXU31Xfqn3wjzFCBxqpIEgOD-dtSPF8tSmx3Ab8SVcx_49Y0MZm0]--></g></svg>